<svg viewBox="0 0 24 24" xmlns="http://www.w3.org/2000/svg"><path d="m.6 22.4c.6.6 1.5.6 2.1 0l5.3-5.3 3 3c.5.4 1.1.7 1.8.7h.3c.7-.1 1.4-.5 1.8-1.2.9-1.7 1.3-3.6 1-5.5l5.9-3.7c1.2-.7 1.5-2.2.8-3.4-.1-.2-.2-.3-.3-.4l-5.8-5.8c-.4-.5-1-.7-1.7-.7s-1.3.2-1.8.7c-.1 0-.2.2-.3.4l-3.7 5.9c-1.9-.3-3.8 0-5.5 1-1.2.7-1.6 2.2-.9 3.4.1.2.2.4.4.5l3 3-5.4 5.4c-.6.6-.6 1.5 0 2zm3.8-11.8c-.1 0-.1-.1-.1-.1v-.4c0-.1.1-.2.2-.3 1.4-.8 3.1-1.1 4.7-.7l.7.2 4.5-7h.1c.1-.2.2-.2.3-.2h.3l5.7 5.8c.2.2.1.5 0 .6l-7 4.5.2.7c.4 1.6.1 3.3-.7 4.7 0 .1-.3.2-.4.2 0 .1-.3 0-.4-.1z"/></svg>